<?xml version="1.0" encoding="utf-8"?>
<!-- Generator: Adobe Illustrator 23.0.3, SVG Export Plug-In . SVG Version: 6.00 Build 0)  -->
<svg version="1.1" id="Calque_1" xmlns="http://www.w3.org/2000/svg" xmlns:xlink="http://www.w3.org/1999/xlink" x="0px" y="0px"
	 viewBox="0 0 1645.9 1634" style="enable-background:new 0 0 1645.9 1634;" xml:space="preserve">
<style type="text/css">
	.st0{fill:none;stroke:#F9D7D3;stroke-width:3;stroke-miterlimit:10;}
</style>
<title>background-pattern</title>
<path class="st0" d="M1137.7,864.6c11.5,43.6,22.3,99.1-3.4,140.8c-19.6,31.8-54.6,51.4-87.6,66.7c-72.7,33.6-155.3,59.7-234.5,71.8
	c-81.2,12.4-154.3-10.2-215.1-65.7c-26.6-24.3-49.7-54.7-64.3-87.7c-17.3-39.1-6.1-80.2,10.1-117.6c17.1-39.3,39.5-76.8,51.6-118.2
	c12.7-43.4,14.8-88.5,33-130.5c17-39.6,45.2-75.1,83.1-96.5c36-20.3,75.2-17.5,113.1-4.1c72.3,25.6,146.5,61.1,201.1,115.7
	C1085.9,700.3,1116.4,783.5,1137.7,864.6z"/>
<path class="st0" d="M1212.9,865.1c16,52.5,34.2,119.5-0.5,169.1c-25.9,37-70.7,58.1-110.5,76.7c-92,43-190.5,82.9-290.6,101.2
	c-53.3,9.7-101.6,8.2-152.4-10.8c-43.6-16.3-85.4-37.8-120-69.4s-60-71.3-77.6-114.4c-20.9-51.1-13.8-93.8,10.8-142.5
	c23.6-46.8,59-90.8,65.9-144c7.5-57.4,2.1-115.4,25.8-169.8c22.3-51.2,65.6-89.5,115.2-113.5c49.9-24.1,94.2-20.8,144.3,0.7
	c24.2,10.4,47.8,22.5,72,33.1c22.1,9.7,45.7,16,67,27.5c42.1,22.7,76.8,58.9,110.3,92.3c29.7,29.7,61.3,60.4,80.4,98.4
	C1178.7,750.7,1196.4,810.8,1212.9,865.1z"/>
<path class="st0" d="M1281.7,857.8c18.8,63.3,32,133.1-9.9,190.7c-31.5,43.3-76.3,73.8-120.3,102.9c-49.7,32.9-98.6,62.9-155.2,82.7
	c-58.2,20.3-119.8,36.4-180.9,44c-64.1,8-124.1,0.8-186.2-16.3c-54.3-14.9-104.9-36.4-146.2-75.7c-42.3-40.3-70.8-93.8-92.5-147.4
	C366.2,979,356.3,926.3,379,864.3c21.4-58.5,56-108.8,70.4-170.2c14.9-63.4,5.4-138.3,40.8-195.1c32.9-52.7,99.2-85.7,153.8-111.1
	c26-12.1,54.9-24.7,84.1-25.2c30.3-0.5,59.9,11.2,87.2,23.3c28.3,12.6,56,26.8,85.4,36.8c29.1,9.9,58.7,15,86.5,28.7
	c54,26.5,90.9,72.4,132.7,114.2c33.7,33.7,72.5,63.9,96.6,105.8c14.2,24.7,21,51.7,29.6,78.6C1257.5,786.2,1271,821.8,1281.7,857.8z
	"/>
<path class="st0" d="M1349.5,848.1c11.2,38.2,21.1,80.9,14.1,121c-6,34-27.7,60.3-50.7,84.8c-21.9,23.2-45,45.2-64.2,70.8
	c-17.9,23.8-30.4,51.1-48.9,74.3c-42.3,53.3-109.2,84.2-172.6,104c-66.4,20.8-136.7,36.3-206.3,39.4c-69.9,3.2-137.6-9.4-205.1-26.7
	c-63.2-16.1-134.3-34.2-184.2-78.6c-53.7-47.7-89.1-118.8-116.3-184.1c-26.7-64.2-49.4-132.6-37-202.5c5.5-31.2,16-61.7,26.9-91.5
	c12.3-34,34.2-63.5,50.8-95.4c18-34.7,29.9-71.4,38.6-109.5c8.4-36.7,12.5-77.1,38.2-106.5c21.9-25.1,54.9-40.1,83.5-56.3
	c31.8-18.1,63.5-36.6,95.6-54.2c26.9-14.7,56.2-30.7,87-34.7c36.6-4.8,72.8,10,105.3,25.1c33.6,15.5,66.7,33.7,102.8,42.7
	c38.4,9.6,76.7,15.9,114,30.1c33.9,12.9,66.8,29.9,93.6,54.6c21.2,19.5,36.4,44,56,64.8c38.8,41.3,84.1,72.7,111.8,123.6
	c15.3,28,23.6,57.7,31.5,88.4C1323.9,771.1,1338.2,809.3,1349.5,848.1z"/>
<path class="st0" d="M1419.4,843.9c11.2,38.7,21.9,84.1,10.8,124.2c-11.2,40.3-51.7,66.2-82.6,90.6c-30.1,23.8-60.4,49.2-76.8,84.8
	c-14.7,32-17.8,68.3-31.3,100.9c-30,72.9-106.2,106.8-177.6,127.3c-76.4,21.9-159,39.4-238.7,39c-78.6-0.4-153.4-18-227.5-43
	c-70.9-23.9-147.6-48.4-209.8-91c-69-47.3-109.3-126.5-141.2-201.7c-31.2-73.4-53.7-150.1-49.9-230.5c1.6-33.9,6.2-69.8,15.1-102.6
	c10.6-38.9,45.4-65,72.2-92.9c30.6-31.8,53.6-67.2,68.7-108.8c15-41.2,23.8-84.5,48.3-121.7c23.1-34.9,54.2-51.5,90.3-70.2
	c34.3-17.8,66-39.4,97.6-61.5c29.5-20.7,60.3-42.5,96.2-50c40.3-8.4,80.1,7.2,116.1,24c38.6,18,75.7,38.9,117.7,47.9
	c51.7,11,103.5,21.2,154.1,37c40,12.5,82.8,27.6,115.2,55.3c19.8,16.7,37.3,38.7,53.2,59.2c38.6,49.7,83.8,95.4,110.7,153
	c16,34.3,26.3,70.4,34.4,107.3C1393.9,762.6,1407.6,803,1419.4,843.9z"/>
<path class="st0" d="M1484.3,839.6c16.2,42.5,31.6,93.2,12.3,137.5c-18.8,43-61.7,71-98.9,96.6c-39.9,27.5-77.4,52.1-90.7,101.3
	c-10.4,38.4-10.9,78.8-23.2,116.8c-27.3,84.6-108.7,125.6-188.4,149.6c-85.7,25.8-179.6,47.4-269.3,37.7
	c-84.4-9.1-178.4-15.6-257.5-48c-38.1-15.6-72.2-39-109.6-56c-40-18.1-81.2-33.1-118.4-56.9c-78.4-49.9-130.6-130.9-160.2-217.7
	c-28.5-83.4-34.4-172.4-43.9-259.4c-4.4-40-7.8-86.7,7.8-125c15.3-37.7,51-62.8,81.9-86.9c38.1-29.9,67.6-57.8,84.5-104
	c17-46.6,28.7-95.3,54.7-138.1c23.1-38.1,55.7-64.8,94.2-86.2c35.8-19.7,69.7-42.7,101.2-68.7c30.1-25,60.5-53.3,98.2-66.3
	c43.9-15.1,91.2-2.5,133.5,11.8c48,16.3,94.2,35.4,143.5,47.8c61,15.4,121.5,32.5,180.8,53.5c48.1,17,91.3,38.6,136.2,61.9
	c25.2,13.1,53,21.5,70.3,45.5c19.4,26.9,23.9,62,37.5,91.7c16.7,36.5,41.1,68.6,56.2,106.2c15.2,37.8,22.1,77.5,28,117.7
	C1452.2,750.7,1466.8,793.6,1484.3,839.6z"/>
<path class="st0" d="M1545.1,832.7c21.6,40.5,38,83.3,24.4,129.3c-13.2,44.8-45.5,81.8-78.4,113.6c-29.1,28.2-64.6,53-87.2,87
	c-19.2,29-30.2,62.1-38.6,95.6c-8.5,34.2-15.4,68.7-32.5,99.9c-16.5,30.2-41.1,53.7-67.3,75.5c-61.1,51-131,82.8-208.1,101
	c-35.6,8.4-71.8,14.8-108,20.4c-40.1,6.1-79.7-0.4-118.8-9.8c-51.7-12.5-101.4-26.9-154.9-29.1c-49.2-2-99.7-0.8-146.9-16.7
	c-40.8-13.7-76-42-113.8-62.1c-41.4-22.1-84.4-41.4-122.9-68.5c-83.7-59.1-134.8-142.6-158-241.5c-10.4-44.5-14.7-89.8-17.6-135.2
	c-3.5-54.3-16.2-104-30.4-156.4c-10.6-39.1-22-82.3-15.1-123.2c5.7-33.9,27-61.5,51.1-84.8c24.7-24,53.1-44.2,76.6-69.5
	c25-26.8,42-61.2,57.7-94c35.3-73.6,62.9-143.2,129.4-194.5c53-40.9,114.1-67.1,163.8-112.3c28.5-26,57-55.7,93.9-69.3
	c42.8-15.8,94.2-8.5,137.8-0.8c52.8,9.3,105.2,22.6,157.6,34.2c68.9,15.4,137.6,33.6,202.6,61.6c54.6,23.5,100.9,62.9,157.8,80.9
	c35.3,11.2,84.1,8.3,109.5,39.8c26.7,33.1,21.3,84.8,27.8,124.1c8.1,48.7,37.1,84.8,51.6,130.8c13.9,44.2,10.5,89.8,11.3,135.3
	C1500.4,746.5,1520.9,787.3,1545.1,832.7z"/>
<path class="st0" d="M1610.9,828.9c28.4,43.6,42.2,83.1,27.5,134.7c-14.6,51.3-43,97.9-73.5,141.2
	c-47.2,67.1-91.7,129.1-120.8,206.6c-13.8,36.9-28.2,70-56.4,98.3c-29.1,29.2-60.3,56.5-91.8,83.1c-65.9,55.5-134.4,100-219.3,119.6
	c-36.8,8.5-74.4,12.9-111.8,18.1c-46,6.4-87.9-2.2-131.6-16.6c-57.1-18.8-110.2-37.8-171.3-35.9c-58.8,1.8-121.6,12.2-179-5.8
	c-43.7-13.7-79.6-48.4-118.5-71.6c-41.5-24.7-87.5-43.6-123.1-77c-76-71.3-126.8-170.8-151.8-271.2c-11.8-47.3-15-95.4-18.6-143.8
	c-4.6-62.6-24.1-117.4-44.8-176C10.6,788.7-6.7,739.7,2.7,692.4c7.8-39.1,30.8-72.5,55.5-102.8c49.2-60.2,92.4-121.2,130.5-189.2
	c20.4-36.3,39.5-74.7,65.7-107.3c23.7-29.5,54.5-54.5,84.2-77.8c26.5-20.7,54.4-39.3,84.2-54.8c32.2-16.7,62.5-30.2,90.1-54.5
	c34.9-30.7,65.9-69.9,108.9-89.8C667-4.7,726.8,1.5,774.9,5.3C871.4,13,971.8,25.5,1066,48.5c53.5,13,103.8,31.9,149,63.7
	c40.7,28.7,81.9,55,129.4,71c38.7,13,85.9,15.5,121,37.5c36.8,23.1,37,68.4,39.1,107.1c2.3,43.3,7,85.5,24,125.8
	c15.4,36.5,37.6,66.8,41.5,107.4c4.3,44.8-8.8,88.3-10.6,132.8C1557.6,746.8,1583.2,786.4,1610.9,828.9z"/>
</svg>
