<?xml version="1.0"?>
<svg xmlns="http://www.w3.org/2000/svg" viewBox="0 0 512 512" width="512" height="512"><g id="Out_line" data-name="Out line"><path d="M370.76587,135.45239a42.00475,42.00475,0,0,0-5.10913-53.10913l-8-8a42.00419,42.00419,0,0,0-53.10938-5.10937L257.65674,22.34326a24.9704,24.9704,0,0,0-35.31348,35.31348l1.95166,1.95166,2.61621,28.77978a112.42845,112.42845,0,0,1-27.11743,84.092l-2.137-2.137a8,8,0,0,0-11.31348,0l-72,72a7.99915,7.99915,0,0,0,0,11.31348L116.68652,256,99.314,273.37256a32.00014,32.00014,0,0,0,0,45.25488l22.0586,22.0586a32.00014,32.00014,0,0,0,45.25488,0L184,323.31348l2.34326,2.34326a7.99945,7.99945,0,0,0,11.31348,0L200,323.31348,204.68652,328l-7.02978,7.02979A46.32162,46.32162,0,0,0,184,368a30.427,30.427,0,0,1-8.97021,21.65674L152,412.68652l-10.34326-10.34326a8,8,0,0,0-11.31348,0l-80,80,11.31348,11.31348L136,419.31348l74.34326,74.34326,11.31348-11.31348L163.31348,424,176,411.31348l74.34326,74.34326a7.99945,7.99945,0,0,0,11.31348,0l4.68652-4.68653A30.427,30.427,0,0,1,288,472a46.32162,46.32162,0,0,0,32.97021-13.65674L380.686,398.62744a32.03584,32.03584,0,0,0,0-45.25488l-70.0586-70.0586a32.035,32.035,0,0,0-45.25488,0L256,292.68652,243.31348,280l26.34326-26.34326a7.99915,7.99915,0,0,0,0-11.31348l-2.137-2.137a112.44861,112.44861,0,0,1,84.092-27.11743l28.77978,2.61621,1.95166,1.95166a24.9704,24.9704,0,0,0,35.31348-35.31348ZM346.34326,85.65674l8,8a25.98373,25.98373,0,0,1,4.76,30.13305L316.21021,80.89673A25.98362,25.98362,0,0,1,346.34326,85.65674ZM155.314,329.37256a16.01631,16.01631,0,0,1-19.67993,2.30688l14.02271-14.0227-11.31348-11.31348L124,320.68652l-5.657-5.657,13.3728-13.3728-11.31348-11.31348-12.77612,12.77612a16.01838,16.01838,0,0,1,3.00122-18.43334L128,267.31348,172.68652,312Zm142.97986-35.66687a16.015,16.015,0,0,1-.92126,21.60827l-7.0293,7.0293,11.31348,11.31348,7.0293-7.0293a31.77127,31.77127,0,0,0,8.25708-14.37085l4.42944,4.42945a16.019,16.019,0,0,1,0,22.62792l-7.0293,7.0293,11.31348,11.31348,7.0293-7.0293a31.80106,31.80106,0,0,0,8.27661-14.35132l4.40991,4.40992a16.019,16.019,0,0,1,0,22.62792l-7.0293,7.0293,11.31348,11.31348,7.0293-7.0293a31.80106,31.80106,0,0,0,8.27661-14.35132l4.40991,4.40992a16.019,16.019,0,0,1,0,22.62792l-59.71582,59.71583A30.427,30.427,0,0,1,288,456a46.30157,46.30157,0,0,0-31.98633,12.7002L187.2998,399.98633a47.08639,47.08639,0,0,0,4.22-5.15308l18.82348,18.82349,11.31348-11.31348-23.03613-23.03613A46.93158,46.93158,0,0,0,200,368a30.427,30.427,0,0,1,8.97021-21.65674L216,339.31348l2.34326,2.34326a30.62529,30.62529,0,0,0,48.21594-36.90247L276.686,294.62744A16.01493,16.01493,0,0,1,298.29382,293.70569Zm-47.95056,15.95105a14.62758,14.62758,0,0,1-20.68652,20.68652L211.31348,312,232,291.31348ZM192,308.68652,131.31348,248,192,187.31348,252.68652,248ZM353.06006,197.1543a128.39526,128.39526,0,0,0-96.87988,31.7124L211.1333,183.81982a128.38526,128.38526,0,0,0,31.7124-96.87988l-.87805-9.65881L362.71887,198.03235Zm53.2832,9.189a8.982,8.982,0,0,1-12.68652,0l-160-160a8.97073,8.97073,0,0,1,12.68652-12.68652l160,160A8.98111,8.98111,0,0,1,406.34326,206.34326Z"/><path d="M104,128a24.0275,24.0275,0,0,1,24,24,8,8,0,0,0,16,0,24.0275,24.0275,0,0,1,24-24,8,8,0,0,0,0-16,24.0275,24.0275,0,0,1-24-24,8,8,0,0,0-16,0,24.0275,24.0275,0,0,1-24,24,8,8,0,0,0,0,16Zm32-16.0249A40.33857,40.33857,0,0,0,144.0249,120,40.33857,40.33857,0,0,0,136,128.0249,40.33857,40.33857,0,0,0,127.9751,120,40.33857,40.33857,0,0,0,136,111.9751Z"/><path d="M464,88a24.0275,24.0275,0,0,1-24-24,8,8,0,0,0-16,0,24.0275,24.0275,0,0,1-24,24,8,8,0,0,0,0,16,24.0275,24.0275,0,0,1,24,24,8,8,0,0,0,16,0,24.0275,24.0275,0,0,1,24-24,8,8,0,0,0,0-16Zm-32,16.0249A40.33857,40.33857,0,0,0,423.9751,96,40.33857,40.33857,0,0,0,432,87.9751,40.33857,40.33857,0,0,0,440.0249,96,40.33857,40.33857,0,0,0,432,104.0249Z"/><path d="M400,256a24.0275,24.0275,0,0,1-24-24,8,8,0,0,0-16,0,24.0275,24.0275,0,0,1-24,24,8,8,0,0,0,0,16,24.0275,24.0275,0,0,1,24,24,8,8,0,0,0,16,0,24.0275,24.0275,0,0,1,24-24,8,8,0,0,0,0-16Zm-32,16.0249A40.33857,40.33857,0,0,0,359.9751,264,40.33857,40.33857,0,0,0,368,255.9751,40.33857,40.33857,0,0,0,376.0249,264,40.33857,40.33857,0,0,0,368,272.0249Z"/></g></svg>
