<svg height="512" viewBox="0 0 60 45" width="512" xmlns="http://www.w3.org/2000/svg"><path id="Shape" d="m6.941 45.3c.37977825.4440101.93472573.6997463 1.519.7h14.34c.5792651-.0055476 1.1280321-.260501 1.5058653-.6996148s.5480663-1.0197748.4671347-1.5933852c-1.081-7.29 5.141-11.129 12.227-12.525 0 1.973-.023 1.909.065 2.154.125.349.079.223 4.566 4.709.744615.7450309 1.9394581.7848298 2.732.091l15.018-13.136c.3592788-.3152593.5937701-.7487667.661-1.222.939-6.572-1.09 7.628.948-6.632.0528658-.6939848-.2612301-1.3650425-.828-1.769l-19.975-14.02c-.6063835-.44716527-1.4126121-.51560769-2.0856965-.17705912s-1.0987947 1.02663264-1.1013035 1.78005912v4.74c-20.638-1.268-36 9.528-36 30.3 0 .523-.2.137 5.941 7.3zm-2.767-6.3h13.626l4.078 5h-13.418zm18.482 2.8-3.375-4.138c.057-4.2 1.136-7.136 3.311-8.951 4.462-3.738 12.793-3.131 14.408-2.971v3.4c-7.235 1.282-14.2 5.292-14.344 12.66zm20.389-5.165-3.5-3.5 19.055-13.408-.538 3.765zm-6.157-26.943c.5503693.03103764 1.0892768-.16566238 1.490248-.54393709s.6287039-.90482017.629752-1.45606291v-4.713c20.744 14.529 19.992 13.928 19.981 14.028l-19.989 14.067v-5.334c.0064556-1.0270338-.7708508-1.8897442-1.793-1.99-1.764-.175-10.824-.823-15.9 3.422-2.528 2.112-3.833 5.345-4.007 9.828h-14.276c.493-19.166 14.976-28.448 33.864-27.308z" transform="translate(-1 -1)"/></svg>