<svg width="1400" height="900" viewBox="0 0 1400 900" fill="none" xmlns="http://www.w3.org/2000/svg">
<path d="M1089.8 486.2C1105.8 538.7 1124 605.7 1089.3 655.3C1063.4 692.3 1018.6 713.4 978.8 732C886.8 775 788.3 814.9 688.2 833.2C635 842.9 586.6 841.4 535.8 822.4C492.2 806.1 450.4 784.6 415.8 753C381.3 721.5 355.8 681.7 338.2 638.6C317.3 587.5 324.4 544.8 349 496.1C372.6 449.3 408 405.3 414.9 352.1C422.4 294.7 417 236.7 440.7 182.3C463 131.1 506.3 92.8 555.9 68.8C605.8 44.7 650.1 47.9 700.2 69.5C724.4 79.9 748 92 772.2 102.6C794.3 112.3 818 118.6 839.2 130.1C881.3 152.8 916 189 949.5 222.5C979.2 252.2 1010.8 282.9 1029.9 320.9C1055.6 371.9 1073.3 432 1089.8 486.2Z" stroke="#F9D7D3" stroke-width="3" stroke-miterlimit="10"/>
<path d="M1158.6 479C1177.4 542.3 1190.6 612.1 1148.7 669.7C1117.2 713 1072.4 743.5 1028.4 772.6C978.7 805.5 929.8 835.5 873.2 855.3C815 875.6 753.4 891.7 692.3 899.3C628.2 907.3 568.2 900.1 506.1 883C451.8 868.1 401.2 846.6 359.9 807.4C317.6 767.1 289.1 713.6 267.4 660C243.1 600.3 233.2 547.6 255.9 485.6C277.3 427.1 311.8 376.8 326.3 315.4C341.2 252 331.7 177.1 367.1 120.3C400 67.6 466.3 34.6 520.9 9.20004C546.9 -2.89996 575.8 -15.5 605 -16C635.3 -16.5 664.9 -4.79998 692.2 7.30002C720.5 19.9 748.2 34.1 777.6 44.1C806.7 54 836.3 59.1 864.1 72.8C918.1 99.4 955 145.2 996.8 187C1030.5 220.6 1069.3 250.9 1093.4 292.8C1107.6 317.5 1114.4 344.5 1123 371.4C1134.4 407.4 1147.9 443 1158.6 479Z" stroke="#F9D7D3" stroke-width="3" stroke-miterlimit="10"/>
<path d="M1226.4 469.3C1237.5 507.5 1247.5 550.2 1240.5 590.3C1234.5 624.3 1212.8 650.6 1189.8 675.1C1167.9 698.3 1144.8 720.3 1125.6 745.9C1107.7 769.6 1095.2 797 1076.7 820.2C1034.4 873.5 967.5 904.4 904.1 924.2C837.7 945 767.4 960.5 697.8 963.6C627.9 966.8 560.2 954.2 492.7 936.9C429.5 920.7 358.4 902.7 308.6 858.3C254.9 810.6 219.5 739.5 192.3 674.2C165.6 610 142.9 541.6 155.3 471.7C160.8 440.5 171.3 410 182.1 380.2C194.4 346.2 216.3 316.7 232.9 284.8C250.9 250.1 262.8 213.4 271.5 175.3C279.9 138.6 284 98.2 309.7 68.8C331.6 43.7 364.6 28.7 393.2 12.5C425.1 -5.59996 456.7 -24.1 488.8 -41.7C515.7 -56.4 545 -72.4 575.8 -76.4C612.4 -81.2 648.5 -66.4 681.1 -51.3C714.7 -35.8 747.8 -17.6 783.9 -8.59997C822.3 1.00003 860.6 7.30004 897.9 21.5C931.8 34.4 964.7 51.4 991.5 76.1C1012.7 95.6 1027.9 120 1047.5 140.9C1086.3 182.2 1131.6 213.6 1159.3 264.5C1174.5 292.5 1182.9 322.2 1190.8 352.9C1200.8 392.2 1215.1 430.5 1226.4 469.3Z" stroke="#F9D7D3" stroke-width="3" stroke-miterlimit="10"/>
<path d="M1296.3 465.1C1307.5 503.8 1318.2 549.2 1307.1 589.3C1295.9 629.6 1255.4 655.5 1224.5 679.9C1194.4 703.7 1164.1 729.1 1147.7 764.7C1133 796.7 1129.9 833 1116.4 865.6C1086.4 938.5 1010.2 972.4 938.8 992.9C862.4 1014.8 779.8 1032.3 700.1 1031.9C621.5 1031.5 546.7 1013.9 472.6 988.9C401.7 965 325 940.5 262.8 897.8C193.7 850.5 153.5 771.3 121.6 696.1C90.4 622.8 67.9 546 71.7 465.6C73.3 431.7 77.9 395.8 86.8 363C97.4 324.1 132.2 297.9 159 270.1C189.6 238.3 212.6 202.9 227.7 161.3C242.7 120.1 251.5 76.8 276 39.6C299.1 4.70002 330.2 -11.9 366.3 -30.6C400.6 -48.4 432.3 -70 463.9 -92.1C493.4 -112.8 524.2 -134.6 560.1 -142.1C600.5 -150.5 640.2 -134.9 676.2 -118.1C714.8 -100.1 751.9 -79.2 793.9 -70.2C845.6 -59.2 897.4 -49 948 -33.2C988 -20.7 1030.8 -5.49998 1063.2 22.1C1083 38.9 1100.5 60.9 1116.4 81.4C1155 131.1 1200.2 176.8 1227.1 234.4C1243.1 268.7 1253.4 304.8 1261.5 341.7C1270.8 383.8 1284.5 424.2 1296.3 465.1Z" stroke="#F9D7D3" stroke-width="3" stroke-miterlimit="10"/>
<path d="M1361.3 460.8C1377.5 503.4 1392.9 554 1373.6 598.3C1354.8 641.3 1311.9 669.3 1274.7 694.9C1234.8 722.4 1197.3 747 1184 796.2C1173.6 834.6 1173.1 875 1160.9 913C1133.6 997.6 1052.2 1038.6 972.4 1062.6C886.7 1088.4 792.8 1110 703.1 1100.3C618.7 1091.2 524.7 1084.7 445.6 1052.3C407.5 1036.7 373.4 1013.3 336 996.3C296 978.2 254.9 963.1 217.6 939.4C139.2 889.5 87 808.6 57.4 721.7C28.9 638.3 23 549.3 13.5 462.3C9.10002 422.3 5.70002 375.6 21.3 337.3C36.6 299.6 72.3 274.5 103.1 250.4C141.2 220.5 170.7 192.6 187.6 146.4C204.6 99.8001 216.3 51.1 242.3 8.30003C265.4 -29.8 298 -56.4999 336.5 -77.8999C372.9 -97.9999 405.6 -120 437.7 -146.6C467.8 -171.5 498.2 -199.9 535.9 -212.9C579.8 -228 627.1 -215.4 669.4 -201.1C717.4 -184.9 763.6 -165.7 812.9 -153.3C873.9 -137.9 934.4 -120.8 993.7 -99.7999C1041.8 -82.7999 1085 -61.1999 1129.9 -37.8999C1155.1 -24.7999 1182.9 -16.3999 1200.2 7.60005C1219.6 34.5001 1224.1 69.6 1237.7 99.3C1254.4 135.8 1278.8 167.9 1293.9 205.5C1309.1 243.3 1316 283 1321.9 323.2C1329.1 371.9 1343.8 414.8 1361.3 460.8Z" stroke="#F9D7D3" stroke-width="3" stroke-miterlimit="10"/>
<path d="M1422.1 453.9C1443.7 494.4 1460.1 537.2 1446.5 583.2C1433.3 628 1401 665 1368.1 696.8C1339 725 1303.5 749.8 1280.9 783.8C1261.7 812.8 1250.7 845.9 1242.3 879.4C1233.8 913.6 1226.9 948.1 1209.8 979.3C1193.3 1009.5 1168.7 1033 1142.5 1054.8C1081.4 1105.8 1011.5 1137.6 934.4 1155.8C898.8 1164.2 862.6 1170.6 826.4 1176.2C786.3 1182.3 746.7 1175.8 707.6 1166.4C655.9 1153.9 606.2 1139.5 552.7 1137.3C503.5 1135.3 453.1 1136.5 405.8 1120.6C365 1106.9 329.9 1078.6 292 1058.5C250.6 1036.4 207.6 1017.1 169.1 990C85.4 930.9 34.3 847.4 11.1 748.5C0.700029 704 -3.59997 658.7 -6.49997 613.3C-9.99997 559 -22.7 509.3 -36.9 456.9C-47.5 417.8 -58.9 374.6 -52 333.7C-46.3 299.8 -25 272.2 -0.899967 248.9C23.8 224.9 52.2 204.7 75.7 179.4C100.7 152.6 117.7 118.2 133.4 85.4C168.6 11.9 196.2 -57.7 262.7 -108.9C315.7 -149.7 376.8 -176 426.5 -221.2C455 -247.2 483.5 -276.9 520.4 -290.5C563.2 -306.3 614.6 -299 658.2 -291.3C711 -282 763.4 -268.8 815.8 -257.1C884.7 -241.7 953.4 -223.5 1018.4 -195.5C1073 -172 1119.3 -132.6 1176.2 -114.6C1211.5 -103.4 1260.3 -106.3 1285.7 -74.8C1312.3 -41.7 1307 9.99999 1313.5 49.3C1321.6 98 1350.6 134.1 1365.1 180.1C1379 224.3 1375.6 269.9 1376.4 315.4C1377.4 367.7 1397.8 408.4 1422.1 453.9Z" stroke="#F9D7D3" stroke-width="3" stroke-miterlimit="10"/>
<path d="M1487.8 450.1C1516.2 493.7 1530 533.2 1515.3 584.8C1500.7 636.1 1472.3 682.7 1441.8 726C1394.6 793.1 1350.1 855.1 1321.1 932.6C1307.3 969.5 1292.9 1002.5 1264.7 1030.9C1235.6 1060.1 1204.4 1087.4 1172.9 1114C1106.9 1169.5 1038.5 1214 953.6 1233.6C916.7 1242.1 879.2 1246.5 841.8 1251.7C795.8 1258.1 753.9 1249.5 710.2 1235.1C653.1 1216.3 600 1197.3 538.9 1199.2C480.1 1201 417.3 1211.4 359.9 1193.4C316.2 1179.7 280.3 1145 241.4 1121.8C199.9 1097.1 153.9 1078.2 118.3 1044.8C42.3 973.5 -8.49998 874 -33.5 773.6C-45.3 726.3 -48.5 678.2 -52.1 629.8C-56.7 567.2 -76.2 512.4 -96.9 453.8C-112.4 409.9 -129.6 360.9 -120.3 313.6C-112.6 274.5 -89.5 241.2 -64.8 210.9C-15.6 150.7 27.6 89.7 65.7 21.7C86.1 -14.7 105.2 -53 131.5 -85.6C155.2 -115.1 186 -140.1 215.7 -163.4C242.2 -184.1 270.1 -202.7 299.9 -218.2C332.1 -234.9 362.4 -248.4 390 -272.7C425 -303.4 456 -342.6 499 -362.5C544.2 -383.4 604 -377.2 652.1 -373.4C748.6 -365.7 849 -353.2 943.2 -330.2C996.7 -317.2 1047 -298.3 1092.2 -266.5C1132.9 -237.8 1174.1 -211.5 1221.6 -195.5C1260.3 -182.5 1307.5 -180 1342.6 -158C1379.4 -134.9 1379.6 -89.6 1381.7 -50.9C1384 -7.59996 1388.7 34.7 1405.7 75C1421.1 111.5 1443.3 141.7 1447.2 182.4C1451.5 227.2 1438.4 270.7 1436.6 315.2C1434.6 368 1460.1 407.6 1487.8 450.1Z" stroke="#F9D7D3" stroke-width="3" stroke-miterlimit="10"/>
</svg>
