<?xml version="1.0" encoding="utf-8"?>
<!-- Generator: Adobe Illustrator 23.0.3, SVG Export Plug-In . SVG Version: 6.00 Build 0)  -->
<svg version="1.1" id="Calque_1" xmlns="http://www.w3.org/2000/svg" xmlns:xlink="http://www.w3.org/1999/xlink" x="0px" y="0px"
	 viewBox="0 0 52 30.5" style="enable-background:new 0 0 52 30.5;" xml:space="preserve">
<style type="text/css">
	.st0{fill-rule:evenodd;clip-rule:evenodd;fill:#FFFFFF;}
</style>
<g>
	<g>
		<path class="st0" d="M14,12.3c0-2.2-1.8-4-4-4c-3.3,0-6-2.7-6-6h2c0,2.2,1.8,4,4,4c3.3,0,6,2.7,6,6c0,2.2,1.8,4,4,4
			c3.3,0,6,2.7,6,6c0,2.2,1.8,4,4,4v2c-3.3,0-6-2.7-6-6c0-2.2-1.8-4-4-4C16.7,18.3,14,15.6,14,12.3z M39.5,10.3l8.5,8.5l-1.4,1.4
			L38,11.7C38,11.7,39.5,10.3,39.5,10.3z"/>
	</g>
</g>
</svg>
